<svg width="20" height="21" viewBox="0 0 20 21" fill="none" xmlns="http://www.w3.org/2000/svg">
<path d="M10 0.209999C7.33 0.209999 4.82 1.25 2.93 3.14C1.04 5.03 0 7.54 0 10.21C0 11.53 0.26 12.82 0.76 14.04C1.26 15.26 1.99 16.35 2.93 17.28C3.86 18.21 4.96 18.94 6.17 19.45C7.39 19.96 8.68 20.21 10 20.21C11.32 20.21 12.61 19.95 13.83 19.45C15.05 18.95 16.14 18.22 17.07 17.28C18 16.35 18.73 15.25 19.24 14.04C19.75 12.82 20 11.53 20 10.21C20 7.54 18.96 5.03 17.07 3.14C15.18 1.25 12.67 0.209999 10 0.209999ZM17.39 13.28C16.99 14.26 16.4 15.13 15.66 15.88C14.91 16.63 14.04 17.21 13.06 17.61C11.11 18.42 8.89 18.42 6.94 17.61C5.96 17.21 5.09 16.62 4.34 15.88C3.59 15.13 3.01 14.26 2.61 13.28C2.21 12.3 2 11.27 2 10.21C2 8.07 2.83 6.06 4.34 4.55C5.85 3.04 7.86 2.21 10 2.21C12.14 2.21 14.15 3.04 15.66 4.55C17.17 6.06 18 8.08 18 10.21C18 11.27 17.79 12.3 17.39 13.28Z" fill="#777777"/>
<path d="M11 9.8V6.21C11 5.66 10.55 5.21 10 5.21C9.45 5.21 9 5.66 9 6.21V10.21C9 10.48 9.11 10.73 9.29 10.92L12.29 13.92C12.49 14.12 12.74 14.21 13 14.21C13.26 14.21 13.51 14.11 13.71 13.92C14.1 13.53 14.1 12.9 13.71 12.51L11 9.8Z" fill="#777777"/>
</svg>
