<svg width="21" height="17" viewBox="0 0 21 17" fill="none" xmlns="http://www.w3.org/2000/svg">
<path d="M5.35 12.21H6.35C6.9 12.21 7.35 11.76 7.35 11.21C7.35 10.66 6.9 10.21 6.35 10.21H5.35C4.8 10.21 4.35 10.66 4.35 11.21C4.35 11.76 4.79 12.21 5.35 12.21Z" fill="#777777"/>
<path d="M16.35 0.209999H4.35C3.28 0.209999 2.28 0.629999 1.52 1.38C0.76 2.13 0.349998 3.14 0.349998 4.21V12.21C0.349998 13.28 0.77 14.28 1.52 15.04C2.28 15.8 3.28 16.21 4.35 16.21H16.35C17.42 16.21 18.42 15.79 19.18 15.04C19.94 14.29 20.35 13.28 20.35 12.21V4.21C20.35 3.14 19.93 2.14 19.18 1.38C18.42 0.629999 17.42 0.209999 16.35 0.209999ZM18.35 12.21C18.35 12.74 18.14 13.25 17.76 13.62C17.38 14 16.88 14.21 16.35 14.21H4.35C3.82 14.21 3.31 14 2.94 13.62C2.56 13.24 2.35 12.74 2.35 12.21V7.21H18.35V12.21ZM18.35 5.21H2.35V4.21C2.35 3.68 2.56 3.17 2.94 2.8C3.32 2.42 3.82 2.21 4.35 2.21H16.35C16.88 2.21 17.39 2.42 17.76 2.8C18.14 3.18 18.35 3.68 18.35 4.21V5.21Z" fill="#777777"/>
<path d="M10.35 12.21H11.35C11.9 12.21 12.35 11.76 12.35 11.21C12.35 10.66 11.9 10.21 11.35 10.21H10.35C9.8 10.21 9.35 10.66 9.35 11.21C9.35 11.76 9.79 12.21 10.35 12.21Z" fill="#777777"/>
</svg>
