<svg width="21" height="21" viewBox="0 0 21 21" fill="none" xmlns="http://www.w3.org/2000/svg">
<path d="M15.69 8.21H5.69C5.14 8.21 4.69 8.66 4.69 9.21C4.69 9.76 5.14 10.21 5.69 10.21H15.69C16.24 10.21 16.69 9.76 16.69 9.21C16.69 8.66 16.25 8.21 15.69 8.21Z" fill="#777777"/>
<path d="M17.69 2.21H15.69V1.21C15.69 0.659999 15.24 0.209999 14.69 0.209999C14.14 0.209999 13.69 0.659999 13.69 1.21V2.21H7.69V1.21C7.69 0.659999 7.24 0.209999 6.69 0.209999C6.14 0.209999 5.69 0.659999 5.69 1.21V2.21H3.69C2.9 2.21 2.13 2.53 1.57 3.09C1 3.66 0.690002 4.41 0.690002 5.21V17.21C0.690002 18 1.01 18.77 1.57 19.33C2.13 19.89 2.9 20.21 3.69 20.21H17.69C18.48 20.21 19.25 19.89 19.81 19.33C20.37 18.77 20.69 18 20.69 17.21V5.21C20.69 4.41 20.38 3.66 19.81 3.09C19.26 2.54 18.48 2.21 17.69 2.21ZM18.69 17.21C18.69 17.47 18.58 17.73 18.4 17.92C18.21 18.11 17.96 18.21 17.69 18.21H3.69C3.43 18.21 3.17 18.1 2.98 17.92C2.79 17.73 2.69 17.48 2.69 17.21V5.21C2.69 4.95 2.8 4.69 2.98 4.5C3.17 4.31 3.42 4.21 3.69 4.21H5.69V5.21C5.69 5.76 6.14 6.21 6.69 6.21C7.24 6.21 7.69 5.76 7.69 5.21V4.21H13.69V5.21C13.69 5.76 14.14 6.21 14.69 6.21C15.24 6.21 15.69 5.76 15.69 5.21V4.21H17.69C17.95 4.21 18.21 4.32 18.4 4.5C18.59 4.69 18.69 4.94 18.69 5.21V17.21Z" fill="#777777"/>
</svg>
