<svg width="19" height="21" viewBox="0 0 19 21" fill="none" xmlns="http://www.w3.org/2000/svg">
<path d="M17.35 5.53C16.67 3.88 15.52 2.48 14.04 1.49C11.07 -0.499999 7.00999 -0.499999 4.03999 1.49C2.54999 2.48 1.41 3.88 0.719999 5.53C0.039999 7.18 -0.140003 8.98 0.209997 10.73C0.559997 12.48 1.41 14.07 2.67 15.34L6.91 19.58C7.19 19.86 7.52 20.08 7.88 20.23C8.25 20.38 8.63 20.46 9.03 20.46C9.42 20.46 9.80999 20.38 10.18 20.23C10.54 20.08 10.87 19.86 11.15 19.58L15.39 15.34C16.65 14.08 17.51 12.48 17.85 10.73C18.22 8.98 18.04 7.18 17.35 5.53ZM15.91 10.34C15.64 11.7 14.98 12.94 13.99 13.92L9.75 18.16C9.66 18.25 9.54999 18.33 9.42999 18.38C9.17999 18.48 8.91 18.48 8.66 18.38C8.54 18.33 8.43 18.26 8.33 18.16L4.08999 13.92C3.10999 12.94 2.45 11.7 2.17 10.34C1.9 8.98 2.04 7.58 2.57 6.3C3.1 5.02 3.98999 3.93 5.14999 3.16C6.29999 2.39 7.64999 1.98 9.03999 1.98C10.43 1.98 11.77 2.39 12.93 3.16C14.08 3.93 14.98 5.02 15.51 6.3C16.04 7.58 16.18 8.97 15.91 10.34Z" fill="#777777"/>
<path d="M9.03999 4.97C7.96999 4.97 6.97001 5.39 6.21001 6.14C5.46001 6.88 5.03999 7.91 5.03999 8.97C5.03999 10.04 5.46001 11.04 6.21001 11.8C6.97001 12.56 7.96999 12.97 9.03999 12.97C10.11 12.97 11.11 12.55 11.87 11.8C12.63 11.05 13.04 10.04 13.04 8.97C13.04 7.92 12.61 6.88 11.87 6.14C11.11 5.39 10.11 4.97 9.03999 4.97ZM10.45 10.39C9.7 11.15 8.38 11.15 7.62 10.39C7.24 10.01 7.03 9.51 7.03 8.98C7.03 8.45 7.24 7.94 7.62 7.57C8 7.19 8.5 6.98 9.03 6.98C9.56 6.98 10.07 7.19 10.45 7.57C10.82 7.94 11.03 8.46 11.03 8.98C11.04 9.51 10.83 10.01 10.45 10.39Z" fill="#777777"/>
</svg>
