<svg width="90" height="90" viewBox="0 0 90 90" fill="none" xmlns="http://www.w3.org/2000/svg">
<path d="M74 90H16C7.16 90 0 82.84 0 74V16C0 7.16 7.16 0 16 0H74C82.84 0 90 7.16 90 16V74C90 82.84 82.84 90 74 90Z" fill="#001E36"/>
<path d="M22.53 60.25V25.46C22.53 25.22 22.63 25.09 22.87 25.09C23.44 25.09 23.99 25.09 24.76 25.06C25.57 25.03 26.42 25.03 27.33 24.99C28.24 24.96 29.22 24.96 30.27 24.92C31.32 24.89 32.33 24.89 33.35 24.89C36.12 24.89 38.42 25.23 40.32 25.94C42.01 26.51 43.57 27.46 44.85 28.71C45.93 29.79 46.78 31.11 47.32 32.56C47.83 33.98 48.1 35.43 48.1 36.96C48.1 39.87 47.42 42.27 46.07 44.16C44.72 46.05 42.82 47.47 40.63 48.28C38.33 49.13 35.8 49.43 33.02 49.43C32.21 49.43 31.67 49.43 31.33 49.4C30.99 49.37 30.52 49.37 29.88 49.37V60.22C29.91 60.46 29.74 60.66 29.51 60.69C29.48 60.69 29.44 60.69 29.37 60.69H22.95C22.66 60.69 22.53 60.55 22.53 60.25ZM29.9 31.61V42.97C30.37 43 30.81 43.04 31.22 43.04H33.01C34.33 43.04 35.65 42.84 36.9 42.43C37.98 42.13 38.93 41.48 39.67 40.64C40.38 39.79 40.72 38.65 40.72 37.16C40.75 36.11 40.48 35.06 39.94 34.15C39.37 33.27 38.55 32.59 37.57 32.22C36.32 31.71 34.97 31.51 33.58 31.54C32.7 31.54 31.92 31.54 31.28 31.57C30.61 31.54 30.14 31.58 29.9 31.61Z" fill="#31A8FF"/>
<path d="M69.19 40.91C68.18 40.37 67.09 40 65.94 39.76C64.69 39.49 63.44 39.32 62.15 39.32C61.47 39.29 60.76 39.39 60.12 39.56C59.68 39.66 59.31 39.9 59.07 40.24C58.9 40.51 58.8 40.85 58.8 41.15C58.8 41.45 58.94 41.76 59.14 42.03C59.44 42.4 59.85 42.71 60.29 42.94C61.07 43.35 61.88 43.72 62.69 44.06C64.52 44.67 66.27 45.51 67.9 46.53C69.02 47.24 69.93 48.19 70.57 49.34C71.11 50.42 71.38 51.61 71.35 52.82C71.38 54.41 70.91 56 70.03 57.32C69.08 58.67 67.76 59.72 66.24 60.33C64.58 61.04 62.55 61.41 60.12 61.41C58.56 61.41 57.04 61.27 55.52 60.97C54.34 60.77 53.15 60.4 52.07 59.89C51.83 59.75 51.66 59.52 51.7 59.25V53.37C51.7 53.27 51.73 53.13 51.84 53.07C51.94 53 52.04 53.04 52.14 53.1C53.46 53.88 54.84 54.42 56.33 54.76C57.61 55.1 58.97 55.27 60.32 55.27C61.6 55.27 62.52 55.1 63.13 54.8C63.67 54.56 64.04 53.99 64.04 53.38C64.04 52.91 63.77 52.47 63.23 52.03C62.69 51.59 61.57 51.08 59.92 50.44C58.2 49.83 56.61 49.02 55.12 48.01C54.07 47.27 53.19 46.29 52.55 45.14C52.01 44.06 51.74 42.87 51.77 41.69C51.77 40.24 52.18 38.85 52.92 37.6C53.77 36.25 55.02 35.17 56.47 34.49C58.06 33.68 60.05 33.31 62.45 33.31C63.84 33.31 65.26 33.41 66.64 33.61C67.65 33.75 68.63 34.02 69.55 34.39C69.69 34.42 69.82 34.56 69.89 34.69C69.92 34.83 69.96 34.96 69.96 35.1V40.61C69.96 40.75 69.89 40.88 69.79 40.95C69.49 40.98 69.32 40.98 69.19 40.91Z" fill="#31A8FF"/>
</svg>
