<svg width="91" height="90" viewBox="0 0 91 90" fill="none" xmlns="http://www.w3.org/2000/svg">
<path d="M74.48 90H16.48C7.64 90 0.480011 82.84 0.480011 74V16C0.480011 7.16 7.64 0 16.48 0H74.48C83.32 0 90.48 7.16 90.48 16V74C90.48 82.84 83.32 90 74.48 90Z" fill="#330000"/>
<path d="M43.79 52.27H31.21L28.64 60.22C28.57 60.52 28.3 60.73 28 60.69H21.64C21.27 60.69 21.17 60.49 21.27 60.08L32.16 28.74C32.26 28.4 32.36 28.03 32.5 27.62C32.64 26.91 32.7 26.17 32.7 25.42C32.67 25.25 32.8 25.08 32.97 25.05C33 25.05 33.04 25.05 33.07 25.05H41.73C42 25.05 42.14 25.15 42.17 25.32L54.51 60.15C54.61 60.52 54.51 60.69 54.17 60.69H47.1C46.86 60.72 46.63 60.55 46.56 60.32L43.79 52.27ZM33.18 45.41H41.77C41.57 44.7 41.3 43.85 40.99 42.98C40.69 42.07 40.38 41.09 40.08 40.07C39.74 39.02 39.44 38.01 39.1 36.96C38.76 35.91 38.46 34.93 38.19 33.95C37.92 33 37.68 32.12 37.45 31.31H37.38C37.08 32.76 36.7 34.22 36.23 35.67C35.72 37.29 35.22 38.98 34.67 40.67C34.19 42.4 33.68 43.99 33.18 45.41Z" fill="#FF9A00"/>
<path d="M61.88 30.83C60.76 30.86 59.68 30.42 58.87 29.65C58.09 28.8 57.69 27.69 57.72 26.54C57.69 25.39 58.13 24.31 58.94 23.53C59.75 22.75 60.83 22.35 61.95 22.35C63.27 22.35 64.28 22.76 65.03 23.53C65.77 24.34 66.18 25.42 66.15 26.54C66.18 27.69 65.78 28.81 64.97 29.65C64.18 30.46 63.03 30.9 61.88 30.83ZM58.1 60.18V34.15C58.1 33.81 58.24 33.68 58.54 33.68H65.23C65.53 33.68 65.67 33.85 65.67 34.15V60.18C65.67 60.55 65.53 60.72 65.23 60.72H58.6C58.26 60.72 58.1 60.52 58.1 60.18Z" fill="#FF9A00"/>
</svg>
