<svg width="91" height="90" viewBox="0 0 91 90" fill="none" xmlns="http://www.w3.org/2000/svg">
<path d="M74.96 90H16.96C8.12001 90 0.960007 82.84 0.960007 74V16C0.960007 7.16 8.12001 0 16.96 0H74.96C83.8 0 90.96 7.16 90.96 16V74C90.96 82.84 83.79 90 74.96 90Z" fill="#30313C"/>
<path d="M35.19 77.3C41.14 77.3 45.96 72.48 45.96 66.53V55.77H35.19C29.24 55.77 24.42 60.59 24.42 66.54C24.43 72.48 29.25 77.3 35.19 77.3Z" fill="#0ACF83"/>
<path d="M24.42 45C24.42 39.05 29.24 34.23 35.19 34.23H45.96V55.76H35.19C29.24 55.77 24.42 50.95 24.42 45Z" fill="#A259FF"/>
<path d="M24.43 23.47C24.43 17.53 29.25 12.71 35.19 12.7H45.96V34.23H35.2C29.25 34.23 24.43 29.41 24.43 23.47Z" fill="#F24E1E"/>
<path d="M45.96 12.7H56.73C62.68 12.7 67.5 17.52 67.5 23.47C67.5 29.42 62.68 34.23 56.73 34.24H45.96V12.7Z" fill="#FF7262"/>
<path d="M67.49 45C67.49 50.95 62.67 55.77 56.72 55.77C50.77 55.77 45.96 50.95 45.95 45C45.95 39.05 50.77 34.23 56.72 34.23C62.67 34.24 67.49 39.05 67.49 45Z" fill="#1ABCFE"/>
</svg>
