<svg width="91" height="90" viewBox="0 0 91 90" fill="none" xmlns="http://www.w3.org/2000/svg">
<path d="M74.44 90H16.44C7.6 90 0.440002 82.84 0.440002 74V16C0.440002 7.16 7.6 0 16.44 0H74.44C83.28 0 90.44 7.16 90.44 16V74C90.44 82.84 83.27 90 74.44 90Z" fill="#00005B"/>
<path d="M37.64 52.3H25.1L22.53 60.25C22.46 60.55 22.19 60.76 21.89 60.72H15.47C15.1 60.72 15 60.52 15.1 60.11L26.02 28.9C26.12 28.56 26.22 28.29 26.36 27.85C26.5 27.14 26.56 26.4 26.56 25.65C26.53 25.48 26.66 25.31 26.83 25.28C26.86 25.28 26.9 25.28 26.93 25.28H35.62C35.89 25.28 36.03 25.38 36.06 25.55L48.37 60.14C48.47 60.51 48.37 60.68 48.03 60.68H40.96C40.72 60.71 40.49 60.54 40.42 60.31L37.64 52.3ZM27.06 45.57H35.65C35.45 44.86 35.18 44.01 34.87 43.14C34.57 42.23 34.26 41.25 33.96 40.23C33.62 39.18 33.32 38.17 32.98 37.12C32.64 36.07 32.34 35.09 32.07 34.11C31.8 33.16 31.56 32.28 31.33 31.47H31.26C30.96 32.92 30.58 34.38 30.11 35.83C29.6 37.45 29.1 39.14 28.55 40.83C28.08 42.56 27.57 44.15 27.06 45.57Z" fill="#9999FF"/>
<path d="M52.18 60.21V40.13C52.18 39.52 52.18 38.81 52.15 38.07C52.12 37.29 52.12 36.58 52.08 35.91C52.05 35.23 52.01 34.59 51.98 34.19C51.95 34.09 51.95 33.95 52.05 33.85C52.15 33.78 52.25 33.75 52.39 33.75H57.83C58.03 33.75 58.2 33.78 58.37 33.85C58.51 33.92 58.61 34.05 58.64 34.22C58.71 34.42 58.81 34.69 58.88 34.96C58.98 35.33 59.05 35.7 59.08 36.08C60.13 35.17 61.35 34.46 62.66 33.98C63.98 33.54 65.36 33.3 66.75 33.3C67.83 33.3 68.91 33.47 69.93 33.81C72.33 34.59 74.22 36.45 75.07 38.81C75.61 40.2 75.81 42.02 75.81 44.22V60.21C75.81 60.55 75.67 60.68 75.37 60.68L69.01 60.75C68.74 60.78 68.5 60.61 68.47 60.34C68.47 60.31 68.47 60.24 68.47 60.2V45.07C68.44 44.06 68.23 43.04 67.83 42.13C67.53 41.45 67.05 40.85 66.44 40.44C65.73 40 64.95 39.8 64.14 39.83C63.26 39.83 62.38 39.97 61.57 40.3C60.83 40.6 60.15 41.04 59.54 41.58V60.24C59.54 60.58 59.4 60.71 59.1 60.71H52.68C52.44 60.74 52.24 60.57 52.21 60.34C52.15 60.28 52.15 60.25 52.18 60.21Z" fill="#9999FF"/>
</svg>
