<svg width="91" height="90" viewBox="0 0 91 90" fill="none" xmlns="http://www.w3.org/2000/svg">
<path d="M74.91 90H16.91C8.07 90 0.910004 82.84 0.910004 74V16C0.910004 7.16 8.07 0 16.91 0H74.91C83.75 0 90.91 7.16 90.91 16V74C90.91 82.84 83.75 90 74.91 90Z" fill="#00005B"/>
<path d="M38.71 52.26H26.16L23.61 60.21C23.54 60.51 23.26 60.71 22.96 60.7H16.6C16.24 60.7 16.11 60.5 16.22 60.1L27.09 28.94C27.2 28.61 27.31 28.3 27.42 27.88C27.56 27.16 27.64 26.42 27.64 25.68C27.61 25.5 27.74 25.33 27.93 25.3C27.96 25.3 27.99 25.3 28.02 25.3H36.66C36.91 25.3 37.06 25.39 37.09 25.57L49.42 60.16C49.53 60.52 49.42 60.7 49.09 60.7H42.03C41.78 60.73 41.55 60.57 41.49 60.32L38.71 52.26ZM28.11 45.56H36.69C36.47 44.84 36.22 44.02 35.93 43.12C35.64 42.22 35.33 41.25 35.01 40.21C34.68 39.18 34.36 38.15 34.03 37.11C33.7 36.08 33.41 35.08 33.13 34.12C32.86 33.16 32.61 32.28 32.4 31.49H32.35C32.04 32.96 31.66 34.41 31.21 35.84C30.7 37.47 30.19 39.14 29.66 40.84C29.14 42.53 28.62 44.11 28.11 45.56Z" fill="#9999FF"/>
<path d="M69.4 49.16H58.7C58.83 50.22 59.18 51.24 59.73 52.15C60.34 53.06 61.2 53.76 62.2 54.19C63.56 54.78 65.04 55.07 66.52 55.04C67.7 55.02 68.87 54.89 70.02 54.66C71.05 54.52 72.06 54.26 73.03 53.87C73.21 53.73 73.3 53.82 73.3 54.14V59.3C73.31 59.44 73.28 59.58 73.22 59.71C73.16 59.81 73.07 59.89 72.98 59.95C71.91 60.43 70.77 60.76 69.61 60.95C68.03 61.25 66.43 61.38 64.83 61.36C62.26 61.36 60.1 60.96 58.37 60.16C56.73 59.44 55.28 58.34 54.13 56.95C53.06 55.65 52.27 54.14 51.79 52.52C51.32 50.92 51.08 49.27 51.08 47.6C51.07 45.78 51.36 43.98 51.92 42.25C52.46 40.56 53.32 39 54.45 37.63C55.56 36.28 56.95 35.19 58.52 34.42C60.11 33.64 62 33.36 64.17 33.36C65.97 33.31 67.76 33.67 69.41 34.39C70.8 34.98 72.02 35.9 72.97 37.08C73.86 38.23 74.54 39.53 74.98 40.91C75.41 42.24 75.63 43.64 75.63 45.04C75.63 45.84 75.6 46.56 75.55 47.21C75.5 47.86 75.45 48.33 75.41 48.62C75.38 48.87 75.17 49.05 74.92 49.05C74.7 49.05 74.33 49.08 73.81 49.13C73.28 49.18 72.63 49.22 71.85 49.24C71.09 49.3 70.27 49.16 69.4 49.16ZM58.7 44.21H65.82C66.69 44.21 67.33 44.2 67.75 44.18C68.03 44.15 68.3 44.06 68.54 43.92V43.6C68.53 43.18 68.46 42.75 68.32 42.35C67.72 40.44 65.92 39.18 63.92 39.25C62.05 39.14 60.29 40.14 59.44 41.8C59.06 42.56 58.81 43.38 58.7 44.21Z" fill="#9999FF"/>
</svg>
