<svg width="60" height="60" viewBox="0 0 60 60" fill="none" xmlns="http://www.w3.org/2000/svg">
<path d="M0 28.75C0 15.2 0 8.42 4.21 4.21C8.42 0 15.2 0 28.75 0H31.25C44.8 0 51.58 0 55.79 4.21C60 8.42 60 15.2 60 28.75V31.25C60 44.8 60 51.58 55.79 55.79C51.58 60 44.8 60 31.25 60H28.75C15.2 60 8.42 60 4.21 55.79C0 51.58 0 44.8 0 31.25V28.75Z" fill="#2787F5"/>
<path fill-rule="evenodd" clip-rule="evenodd" d="M16.25 18.75H11.87C10.62 18.75 10.37 19.34 10.37 19.99C10.37 21.15 11.85 26.9 17.28 34.5C20.9 39.69 25.99 42.51 30.63 42.51C33.41 42.51 33.76 41.88 33.76 40.81V36.89C33.76 35.64 34.02 35.39 34.9 35.39C35.55 35.39 36.66 35.71 39.26 38.22C42.23 41.19 42.72 42.52 44.39 42.52H48.77C50.02 42.52 50.65 41.89 50.28 40.66C49.89 39.43 48.47 37.65 46.59 35.53C45.57 34.32 44.04 33.03 43.58 32.38C42.93 31.55 43.12 31.17 43.58 30.43C43.58 30.43 48.91 22.92 49.47 20.37C49.75 19.44 49.47 18.76 48.15 18.76H43.77C42.66 18.76 42.14 19.35 41.87 20C41.87 20 39.64 25.42 36.49 28.95C35.47 29.97 35.01 30.29 34.45 30.29C34.17 30.29 33.77 29.97 33.77 29.04V20.37C33.77 19.26 33.45 18.76 32.52 18.76H25.64C24.94 18.76 24.53 19.28 24.53 19.77C24.53 20.82 26.11 21.07 26.27 24.03V30.47C26.27 31.88 26.01 32.14 25.46 32.14C23.98 32.14 20.37 26.69 18.23 20.46C17.79 19.24 17.37 18.75 16.25 18.75Z" fill="white"/>
</svg>
